<svg width="300" height="300" viewBox="0 0 300 300" fill="none" xmlns="http://www.w3.org/2000/svg">
<path d="M232.132 136.564H217.822L190.491 177.745L163.021 136.564H148.85V213.727H168.037L167.945 174.801L185.199 201.488V201.58H195.874V201.488L212.991 175.031V213.727H232.178V136.564H232.132ZM91.3344 196.472V153.819H103.252C115.721 153.819 125.383 163.021 125.383 174.939C125.383 187.178 115.721 196.518 103.252 196.518H91.3344V196.472ZM72.1933 136.564V213.727H103.298C127.454 213.727 144.939 197.853 144.939 174.893C144.939 152.301 127.454 136.518 103.298 136.518H72.1933V136.564ZM29.1718 153.451H67.546V136.518H9.98466V213.681H29.1718V186.442H62.3006V169.739H29.1718V153.451ZM242.025 82.9141L258.405 105.46C258.543 105.644 258.773 105.69 258.957 105.644L285.414 97.0399C285.874 96.9018 286.242 97.408 285.966 97.8221L269.586 120.368C269.448 120.552 269.448 120.782 269.586 120.966L285.966 143.512C286.242 143.926 285.874 144.433 285.414 144.294L258.957 135.69C258.773 135.644 258.543 135.69 258.405 135.874L242.025 158.282C241.748 158.65 241.104 158.466 241.104 158.006V130.169C241.104 129.939 240.966 129.755 240.782 129.709L214.279 121.104C213.819 120.966 213.819 120.322 214.279 120.138L240.782 111.534C240.966 111.488 241.104 111.258 241.104 111.074V83.2362C241.104 82.73 241.748 82.5 242.025 82.9141Z" fill="#FCFCFF"/>
</svg>
