<svg width="302" height="287" viewBox="0 0 302 287" fill="none" xmlns="http://www.w3.org/2000/svg">
<path d="M233.679 137.475H219.274L191.761 178.93L164.108 137.475H149.842V215.152H169.157L169.064 175.966L186.434 202.831V202.924H197.18V202.831L214.411 176.198V215.152H233.726V137.475H233.679ZM91.9433 197.782V154.844H103.94C116.492 154.844 126.219 164.108 126.219 176.105C126.219 188.426 116.492 197.829 103.94 197.829H91.9433V197.782ZM72.6745 137.475V215.152H103.986C128.304 215.152 145.905 199.172 145.905 176.059C145.905 153.316 128.304 137.429 103.986 137.429H72.6745V137.475ZM29.3663 154.474H67.9963V137.429H10.0512V215.106H29.3663V187.685H62.716V170.871H29.3663V154.474ZM243.638 83.4669L260.128 106.163C260.267 106.348 260.498 106.395 260.683 106.348L287.317 97.6868C287.78 97.5478 288.151 98.0574 287.873 98.4742L271.383 121.171C271.244 121.356 271.244 121.587 271.383 121.773L287.873 144.469C288.151 144.886 287.78 145.395 287.317 145.256L260.683 136.595C260.498 136.548 260.267 136.595 260.128 136.78L243.638 159.337C243.36 159.708 242.712 159.523 242.712 159.059V131.036C242.712 130.805 242.573 130.62 242.387 130.573L215.708 121.912C215.244 121.773 215.244 121.124 215.708 120.939L242.387 112.277C242.573 112.231 242.712 111.999 242.712 111.814V83.7911C242.712 83.2816 243.36 83.05 243.638 83.4669Z" fill="#20140F"/>
</svg>
